
<svg xmlns="http://www.w3.org/2000/svg" version="1.1" xmlns:xlink="http://www.w3.org/1999/xlink" preserveAspectRatio="none" x="0px" y="0px" width="450px" height="450px" viewBox="0 0 450 450">
<defs>
<g id="NG_TANK_0_Layer0_0_FILL">
<path fill="#000000" stroke="none" d="
M 364.2 84.5
Q 364.086328125 84.5431640625 363.95 84.65 361.6611328125 85.9439453125 359.6 87.7
L 359.65 87.7
Q 359.3748046875 87.9248046875 359.1 88.15 358.9818359375 88.216796875 358.95 88.3 356.5591796875 90.167578125 354.15 92.1 354.0203125 92.1751953125 354 92.35
L 337.2 105.8
Q 334.66796875 107.818359375 332.2 109.85 332.1029296875 109.879296875 332 109.95
L 332 109.95
Q 331.38046875 110.466796875 330.65 111.05 328.1134765625 113.03671875 326.2 115.6 324.9052734375 117.342578125 324.05 119.2 323.605078125 120.128125 323.25 121.15
L 323.35 121.05
Q 323.2451171875 121.205078125 323.2 121.35
L 283.5 149.25
Q 283.4861328125 149.2998046875 283.45 149.3 281.63203125 147.98046875 279.9 146.85 279.1890625 146.365234375 278.3 146.2
L 278.3 146.2 200.7 134.7
Q 200.6732421875 134.6548828125 200.65 134.6 200.6177734375 134.5677734375 200.55 134.5 199.4791015625 131.1607421875 198.05 127.9 196.744140625 124.9005859375 193.95 120.15 192.5208984375 119.1595703125 192.45 119.15 191.68984375 118.6408203125 190.9 118.15 188.6369140625 116.712109375 186.3 115.4 186.2873046875 115.3642578125 186.25 115.35 185.1537109375 114.5982421875 183.9 114.15 183.6412109375 114.073046875 183.35 114
L 183.35 114.05 183.3 114.05 183.15 113.9 184.05 111.4 187.85 109.95
Q 188.16875 108.6673828125 188.4 107.35 189.0796875 104.059765625 189.35 100.55
L 188.25 98.9
Q 188.7583984375 96.06015625 188.8 93.05 187.7572265625 92.34296875 186.15 91.6 185.223828125 88.8203125 182.35 86.2 177.962109375 82.18671875 171.55 82.15 165.2568359375 82.186328125 160.8 86.2 156.945703125 89.70078125 156.45 94.5 156.4701171875 94.567578125 156.45 94.6 156.32109375 94.646484375 156.15 94.7 154.4150390625 95.3328125 153.35 96.8
L 153.35 96.8
Q 152.96953125 100.6810546875 153.05 102.8 153.1173828125 105.2580078125 153.3 106.7
L 153.65 107.3
Q 153.6875 107.3251953125 153.7 107.35 154.9966796875 108.7736328125 156.8 109.1 156.846875 110.2103515625 157.35 111.1 157.3203125 111.092578125 157.25 111.1 154.520703125 111.875 151.65 112.65 149.6625 113.2 147.65 113.75 145.65859375 114.3421875 143.9 115.3
L 143.75 115.35 140.35 124.05
Q 139.616796875 126.8048828125 138.8 129.5 138.5142578125 130.4576171875 138.3 131.4 137.7978515625 135.5884765625 136.75 141.85 136.67265625 144.57109375 137.3 147 138.262890625 150.872265625 140.95 154.1 140.8650390625 154.173828125 140.75 154.2
L 140.7 154.2 140.75 154.2
Q 135.93359375 157.3619140625 131.1 160.65 128.5509765625 162.4484375 125.95 164.25 119.810546875 168.659375 113.65 173.35 110.826953125 175.493359375 108 177.7 105.9525390625 179.3078125 103.9 180.95
L 103.85 180.95
Q 102.6572265625 181.9076171875 102.45 183.5 101.2892578125 192.50703125 100.5 202 99.957421875 208.872265625 99.6 216 99.278515625 222.6041015625 99.05 229.75 98.9484375 234.8025390625 98.85 240.1 82.46640625 254.642578125 69.7 267.3 61.2037109375 275.8115234375 54.3 283.45 52.314453125 291.6373046875 52.7 301.35 51.1365234375 303.4119140625 49.6 305.7 49.5611328125 305.7732421875 49.5 305.85 42.5564453125 316.2443359375 42.55 331.35 42.565625 346.3583984375 49.45 357.2 49.487109375 357.24140625 49.5 357.25 55.940625 367.4328125 64.8 368.85
L 67.4 369.05
Q 67.441796875 369.0751953125 67.45 369.05
L 67.5 369.05
Q 67.6990234375 369.07890625 67.9 369.1 68.016796875 369.102734375 68.1 369.1 68.1505859375 369.1 68.2 369.1 69.746875 369.109765625 72.65 369
L 333.8 369
Q 334.29921875 369.0361328125 334.7 368.8 338.157421875 366.9736328125 341.35 364.5
L 341.35 364.45
Q 357.37578125 352.5279296875 366.7 334.85 372.5423828125 323.937109375 376.1 312.15 378.065625 305.616796875 379.3 298.8 382.2685546875 283.1544921875 382 267.3 381.9859375 264.291015625 381.8 261.25
L 392.55 253.6 392.55 253.55
Q 393.976953125 252.545703125 394.15 250.9 394.17578125 250.8591796875 394.15 250.8 394.2228515625 250.252734375 394.1 249.75
L 394.1 249.7
Q 393.716796875 247.911328125 392.9 246.2
L 392.9 246.2
Q 392.3513671875 244.9998046875 391.8 243.75
L 391.8 243.8
Q 391.3607421875 242.6623046875 390.85 241.5
L 390.85 241.45
Q 390.060546875 239.7279296875 389.15 238.1 388.31171875 236.526171875 387.4 234.95 386.7623046875 233.8765625 386.1 232.85 382.9314453125 227.8466796875 379.3 224.1 377.4669921875 222.173046875 375.5 220.55 370.0416015625 216.14921875 363.7 214.2 363.672265625 214.1734375 363.6 214.15 363.4541015625 214.1107421875 363.3 214.1 353.084375 211.7611328125 338.3 210.4 330.46953125 209.68203125 321.4 209.35
L 320.95 201.7
Q 320.9439453125 201.629296875 320.9 201.55 320.8705078125 200.9322265625 320.65 200.35 320.515625 200.0287109375 320.3 199.7 320.1240234375 199.4173828125 319.85 199.15
L 319.85 199.1 319.8 199.1
Q 318.808203125 198.0095703125 317.35 197.85
L 317.3 197.85 317.35 197.85 308.55 196.75
Q 308.37109375 194.364453125 308 191.95 307.2162109375 187.1359375 305.75 182.35 303.8880859375 176.1869140625 303.05 174.25
L 303.1 174.2
Q 305.57734375 172.901953125 308.1 171.6 316.1623046875 167.3125 324.2 163 333.4990234375 157.999609375 342.8 153.05 342.924609375 153.0919921875 343.05 153.1
L 343.05 153.1
Q 344.7166015625 153.2294921875 346.45 153.15 350.5666015625 152.9880859375 354.15 151.6 354.233203125 151.584765625 354.25 151.55 354.5662109375 151.3826171875 354.9 151.3 354.958203125 151.2765625 355 151.2
L 355 151.2 388.4 136.9
Q 388.4998046875 136.9240234375 388.55 136.9 393.83359375 135.008203125 398.4 130.9 400.902734375 128.5435546875 402.7 125.95
L 402.7 125.95
Q 402.7712890625 125.9224609375 402.8 125.85 407.22734375 119.3126953125 407.5 110.95 407.7298828125 101.8140625 402.95 94.5
L 403 94.55
Q 402.9376953125 94.4384765625 402.85 94.35 402.7787109375 94.176171875 402.65 94.1 401.344921875 92.101953125 399.7 90.3 399.680078125 90.2916015625 399.65 90.25
L 399.6 90.25
Q 399.5572265625 90.207421875 399.5 90.15 391.396484375 81.5013671875 379.55 81 371.053125 80.6158203125 364.2 84.5
M 365.25 90.3
Q 371.5259765625 86.40703125 379.25 86.75 388.84375 87.2248046875 395.4 94.25 396.9142578125 95.8947265625 398.1 97.65
L 398.05 97.6
Q 401.9142578125 103.4861328125 401.7 110.8 401.41796875 120.2009765625 394.45 126.55 390.8181640625 129.9435546875 386.45 131.45
L 386.45 131.45
Q 386.4140625 131.4720703125 386.35 131.5 386.337109375 131.512109375 386.3 131.5 382.4095703125 132.790234375 377.95 132.55 371.4212890625 132.2685546875 366.3 128.9 366.2486328125 128.871484375 366.15 128.85 365.7857421875 128.5767578125 365.4 128.3 365.130078125 128.0654296875 364.9 127.95 363.2552734375 126.67109375 361.75 125.05 360.2052734375 123.3515625 359 121.5 357.106640625 118.5189453125 356.2 115.15
L 356.25 115.1
Q 355.70546875 112.622265625 355.6 110.3 355.538671875 108.020703125 355.55 107.45 353.18125 112.0458984375 353.5 116.2
L 328.1 133.65
Q 327.760546875 132.0708984375 327.65 130.35
L 327.65 130.35
Q 327.561328125 128.6607421875 327.7 127.1 327.869140625 125.7232421875 328.25 124.4
L 328.3 124.4 328.3 124.35 328.3 124.3 328.3 124.25
Q 328.339453125 124.252734375 328.35 124.2 328.71171875 122.91484375 329.3 121.65 330.3607421875 119.49609375 332.1 117.55 332.271484375 117.3330078125 332.45 117.1
L 338.7 111.75
Q 348.934765625 102.929296875 360.15 94.1
L 365.25 90.3
M 324.4 130.5
L 324.4 130.55
Q 324.565234375 132.898828125 325.15 135.05 325.8341796875 137.6384765625 327.15 139.95
L 327.15 140 257.75 182.25
Q 257.653515625 182.0193359375 257.55 181.75 257.137890625 180.5578125 257.05 179.15 256.98984375 178.411328125 257.05 177.7 257.0853515625 177.3564453125 257.15 177 257.526953125 174.8306640625 259 173.1 259.82421875 172.22578125 260.75 171.65 260.8111328125 171.612109375 260.85 171.55
L 324.45 127.45
Q 324.3337890625 128.951953125 324.4 130.5
M 370.05 224.1
Q 376.1099609375 228.4005859375 381 236.05 384.2947265625 241.2390625 386.8 246.8
L 339.6 242.25
Q 337.973046875 231.4369140625 330.7 224.1 325.7609375 219.0720703125 318.2 215.65 317.7798828125 215.4953125 317.35 215.3 317.0599609375 215.2033203125 316.75 215.05 317.06328125 215.0833984375 317.35 215.1 317.4001953125 215.098046875 317.45 215.1
L 317.65 215.1
Q 318.03671875 215.1169921875 318.4 215.1 345.87265625 216.3521484375 361.9 219.95 366.2134765625 221.3546875 370.05 224.1
M 361.6 271
Q 361.5890625 271.213671875 361.55 271.45
L 361.55 271.45
Q 361.4240234375 273.56328125 361.25 275.65 361.22734375 276.1146484375 361.5 276.45 361.801953125 276.774609375 362.2 276.8
L 375.7 277.65
Q 375.3064453125 288.087109375 373.25 298.3 373.188671875 298.3056640625 373.1 298.3
L 358.55 297.45
Q 358.1921875 297.4681640625 357.9 297.7 357.5859375 297.9041015625 357.45 298.25 357.3376953125 298.7740234375 357.2 299.25 357.2130859375 299.3025390625 357.2 299.3 356.758984375 301.11171875 356.3 302.85 356.2185546875 303.16328125 356.3 303.45
L 356.3 303.45
Q 356.398828125 303.7541015625 356.65 303.95 356.9052734375 304.1375 357.2 304.15
L 371.7 305
Q 369.2669921875 314.61015625 365.3 323.55 365.1486328125 323.5263671875 364.95 323.5
L 349.95 322.8
Q 349.6529296875 322.7830078125 349.35 322.95 349.103515625 323.1267578125 348.95 323.4 348.7814453125 323.84296875 348.55 324.3
L 348.55 324.3
Q 348.4322265625 324.51953125 348.4 324.7
L 348.35 324.75
Q 348.304296875 324.90625 348.2 325.05
L 348.2 325.1
Q 347.5248046875 326.4884765625 346.8 327.9 346.6716796875 328.2380859375 346.75 328.6 346.8267578125 328.9458984375 347.1 329.15
L 347.1 329.15
Q 347.383984375 329.415625 347.7 329.45
L 362.1 330.1 361.35 331.6
Q 359.819921875 334.5119140625 358.1 337.35 354.95859375 342.511328125 351.2 347.05 350.92265625 346.824609375 350.55 346.8
L 335.75 346.6
Q 335.525390625 346.5828125 335.3 346.65 335.07890625 346.7685546875 334.9 346.95 333.68359375 348.561328125 332.35 350.15 332.305078125 350.196484375 332.25 350.25
L 332.25 350.25
Q 331.694921875 350.885546875 331.1 351.5 330.841015625 351.83515625 330.85 352.25 330.8705078125 352.6806640625 331.2 352.95 331.4904296875 353.249609375 331.9 353.25
L 345.25 353.45
Q 339.7453125 358.746484375 333.2 363
L 293.5 363 299.55 357.5 305.75 350.8
Q 314.0642578125 341.033984375 319.7 329.4 320.2708984375 328.2318359375 320.8 327.05 326.5513671875 315.050390625 329.75 302.1 330.06796875 300.8171875 330.35 299.5 334.1552734375 283.8642578125 334.7 267.8 334.7091796875 267.5626953125 334.7 267.3 334.863671875 262.0361328125 334.5 256.7
L 375.2 260.4
Q 375.575 263.8453125 375.7 267.3 375.7318359375 267.8494140625 375.75 268.35
L 375.75 268.4
Q 375.7775390625 269.661328125 375.75 270.9
L 362.7 270.1
Q 362.2919921875 270.0544921875 361.95 270.3 361.666015625 270.5765625 361.6 271
M 166.2 92.35
Q 166.339453125 92.323828125 166.45 92.25 176.81015625 91.308203125 185.95 94.05 186.34609375 94.628125 186.45 94.95 186.833203125 97.465234375 185.75 100.8
L 185.75 100.8
Q 185.6314453125 101.301171875 185.2 101.75 184.1419921875 101.969140625 182.65 101.7 182.687890625 101.640234375 182.65 101.5
L 182.15 100.1
Q 182.1205078125 100.04453125 182.05 100
L 181.75 99.15 181.75 99.15
Q 181.3880859375 98.26796875 180.6 98.25
L 180.6 98.25
Q 179.197265625 98.0716796875 177.75 98 176.880859375 97.9220703125 176.3 98.85
L 175.5 99.85
Q 175.4291015625 99.9396484375 175.35 100
L 174.9 100.55
Q 174.1919921875 101.1314453125 172.9 101.15 169.2466796875 101.422265625 166.15 100.6 165.553125 100.3625 165.25 97.25
L 165.25 97.25
Q 165.1458984375 95.269921875 165.45 92.85 165.6736328125 92.6771484375 165.9 92.5 166.06328125 92.444140625 166.2 92.35
M 182.4 104.45
Q 182.55 104.5546875 182.65 104.6 182.7720703125 104.6431640625 183.05 104.8 183.2810546875 104.9298828125 183.25 105.2 183.11953125 106.06953125 183.05 106.45 182.98046875 106.780859375 182.8 107.35 182.744921875 107.546875 182.65 107.75 182.3724609375 108.63125 182.1 109.4
L 181.75 110.2
Q 181.673046875 110.430859375 181.25 110.75 180.878515625 111.073828125 180 111.45 179.073046875 111.79296875 178.05 111.95 177.769921875 111.9529296875 177.5 111.95 177.2748046875 111.9873046875 177.05 112 176.567578125 112 176.05 112 175.8029296875 111.9654296875 175.55 111.95
L 173.95 111.5
Q 173.2349609375 111.115234375 172.5 110.7 171.74453125 110.30859375 171.2 109.6 170.864453125 108.86484375 170.65 108.05 170.532421875 107.6986328125 170.4 107.35 170.3033203125 106.8853515625 170.2 106.4 170.135546875 106.244921875 170.15 106.05 170.1130859375 106.032421875 170.1 106
L 170.1 105.9
Q 170.09765625 105.8375 170.1 105.75 170.0904296875 105.562890625 170.15 105.35 170.2462890625 105.0251953125 170.35 104.75 170.496875 104.436328125 171.45 104.3
L 171.7 104.3
Q 172.2033203125 104.2578125 172.85 104.15 173.73046875 104.042578125 174.75 103.9 175.755859375 103.7529296875 176.6 103.35 176.6228515625 103.3423828125 176.65 103.3 176.8244140625 103.06484375 176.95 102.85 177.1599609375 102.55 177.35 102.25 177.575 101.9478515625 177.75 101.6 177.9294921875 101.40234375 178.05 101.2 178.1201171875 101.1322265625 178.15 101.05 178.2873046875 101.059765625 178.4 101.05 179.32421875 100.9939453125 180.15 101.25 180.2005859375 101.3896484375 180.2 101.55 180.3576171875 101.8876953125 180.5 102.2 180.5966796875 102.5400390625 180.65 102.9 180.7189453125 103.107421875 180.9 103.55 180.9744140625 103.8173828125 181 103.95
L 181.05 104.05
Q 181.403125 104.1826171875 181.75 104.3 182.068359375 104.367578125 182.4 104.45
M 183.75 123.35
L 185.3 120.25
Q 187.6931640625 120.7822265625 189.85 121.9 189.7103515625 124.9033203125 190.1 129.15
L 190.9 133.25 190.8 133.25 190.8 133.2
Q 183.0271484375 132.7125 175.75 135.75 173.915625 136.6029296875 172.1 137.45 168.7498046875 139.0904296875 165.4 140.75 162.437109375 142.2125 159.45 143.65 159.0021484375 143.9103515625 157.05 145 155.36640625 142.15625 151.75 136.35
L 156.55 139.35
Q 156.8318359375 133.8279296875 156.45 131.2 156.136328125 128.642578125 155.8 125.8 155.46328125 122.9802734375 153.8 118.25
L 159.75 117.4
Q 160.04140625 117.782421875 160.3 118.15 161.2619140625 119.308984375 162.35 120.3 163.3193359375 121.1197265625 164.3 121.8 166.5654296875 123.4529296875 169.1 124.45 172.730078125 125.9115234375 176.6 125.85 180.684765625 125.856640625 183.75 123.35
M 187.7 141.45
Q 188.23203125 139.600390625 191.05 139.75
L 276.95 152.1
Q 277.712890625 152.63125 278.4 153.15
L 267.85 160.6 220.6 154.05
Q 219.0388671875 154.1876953125 217.7 154.75 215.649609375 155.603515625 214.1 157.5 216.3259765625 164.97265625 217.05 170.05 217.458203125 172.96171875 217.7 175.35 217.9068359375 177.3419921875 218 178.95 218.16953125 181.9642578125 218.1 186.1 218.082421875 186.38359375 218.05 186.65
L 218 186.65 197.4 184 197.15 184
Q 196.999609375 181.13125 196.7 178.3 196.662890625 178.0005859375 196.6 177.7 196.3849609375 175.5056640625 196.05 173.35 195.8232421875 171.677734375 195.5 170 195.01875 167.1162109375 194.35 164.25 194.130859375 163.2453125 193.85 162.2 191.1103515625 151.3169921875 187.55 142.75 187.530859375 142.0076171875 187.7 141.45
M 195.4 194.8
L 195.5 189.7 314.6 204.15 314.8 209 307.7 208.8
Q 304.9490234375 208.7607421875 303.2 211.1
L 303.2 211.05 299.4 215.75 247.25 210.4 247.2 210.4
Q 247.192578125 210.3744140625 247.15 210.35 246.955078125 210.093359375 246.75 209.85 246.65 209.7873046875 246.55 209.7 244.940625 208.0693359375 243.1 206.6 241.6693359375 205.516015625 240.1 204.5 237.33125 202.6568359375 234.15 201.1 234.028125 201.053125 233.9 201.05 227.8353515625 198.439453125 217.75 196.85 215.4408203125 196.5177734375 212.9 196.25
L 212.9 196.25
Q 208.953515625 195.7318359375 204.55 195.4
L 204.5 195.4
Q 204.45 195.4 204.35 195.4
L 204.3 195.4
Q 202.5859375 195.251171875 200.05 195.05 198.0001953125 194.947265625 195.4 194.8
M 225.8 160.05
L 225.85 160.05 261.7 164.9 254.4 169.9
Q 252.9048828125 171.8904296875 247.4 190.15
L 226.95 187.75
Q 227.271484375 187.2244140625 227.55 186.7 230.7248046875 180.37734375 230.25 172.8 229.888671875 166.629296875 225.15 160.3 225.4896484375 160.1 225.8 160.05
M 269.2 192.95
L 269.2 192.5
Q 269.3716796875 192.078125 269.5 191.65
L 285.55 183.15
Q 285.71796875 184.903125 285.7 186.45 285.722265625 188.3349609375 285.45 190.15
L 285.45 190.25
Q 285.257421875 191.349609375 285 192.4
L 285.05 192.35
Q 284.913671875 192.762109375 284.65 193.6 284.58203125 193.7318359375 284.55 193.85
L 284.45 194.25
Q 284.4076171875 194.4482421875 284.3 194.8 284.276171875 194.8837890625 284.25 194.95
L 269.2 192.95
M 297.55 176.85
Q 297.749609375 177.2685546875 297.9 177.7 299.5375 181.64765625 300.65 185.95 301.027734375 187.4150390625 301.35 188.9 301.5015625 189.723828125 301.65 190.6
L 301.65 190.65
Q 301.921875 191.957421875 302.3 195.05 302.3921875 196.0599609375 302.5 197.2
L 289.8 195.6 290.2 194.4
Q 290.4095703125 193.782421875 290.55 193.15 290.8765625 191.90703125 291.05 190.6 291.0806640625 190.450390625 291.1 190.3 291.3345703125 188.2845703125 291.3 186.1 291.251171875 183.3880859375 290.75 180.4
L 297.55 176.85
M 113.1 234.95
Q 116.8126953125 232.2705078125 120.45 229.75 140.0501953125 216.1921875 158.2 207.95 165.5892578125 204.6328125 172.7 202.15 176.4125 200.9205078125 180 199.9 183.2916015625 200.1404296875 186.5 200.35 190.070703125 200.6244140625 193.55 200.85 198.79921875 201.2197265625 203.85 201.55 204.18515625 201.5767578125 204.5 201.6 205.6080078125 201.6544921875 206.75 201.7 212.6642578125 202.15859375 217.7 202.95 224.6666015625 204.0638671875 229.95 205.85 231.64921875 206.460546875 233.15 207.1 234.7337890625 208.07265625 236.15 209.1 238.38125 210.70234375 240.35 212.5 242.0513671875 214.13203125 243.55 215.9 244.8265625 217.4279296875 245.95 219.05
L 245.95 219.05
Q 248.6447265625 222.939453125 250.55 227.15 251.1421875 228.4384765625 251.65 229.75 252.3189453125 231.47265625 253.1 234.1
L 194.35 228.95
Q 190.3041015625 215.247265625 182.2 209.2 179.7193359375 207.334375 176.8 206.2 173.2623046875 207.059765625 169.05 208.45 151.450390625 214.3701171875 122.7 229.75 118.0671875 232.2384765625 113.1 234.95
M 117.6 276.8
Q 117.8244140625 285.3916015625 119.4 289.75 113.727734375 293.523046875 103.35 300.5 98.3830078125 303.9228515625 92.3 308.05 91.4169921875 306.751953125 90.5 305.6 87.6376953125 301.98671875 84.4 300.1
L 117.6 276.8
M 125.95 270.9
L 130.7 267.6
Q 130.566015625 270.372265625 130.65 273 130.7705078125 274.7330078125 130.95 276.4
L 140.45 276.7
Q 140.97890625 280.226171875 142 283.45
L 132.15 283.1
Q 132.6595703125 285.0244140625 133.3 286.8
L 143.35 287.1
Q 144.342578125 289.454296875 145.6 291.6 149.4001953125 297.9107421875 154.35 300.5 155.1603515625 300.960546875 156 301.3 148.2013671875 302.9896484375 143.45 300.65 150.735546875 306.00859375 160.35 302.35
L 160.35 302.35
Q 161.2646484375 301.90390625 162.1 301.35 162.783203125 300.964453125 163.4 300.5 163.4876953125 300.4626953125 163.55 300.4 167.1720703125 297.76171875 170.35 293.2 177.971484375 282.4744140625 178.8 267.3 178.8212890625 267.2501953125 178.8 267.15
L 178.8 267.15
Q 178.9328125 265.4474609375 178.95 263.8 178.9384765625 261.7048828125 178.75 259.7 178.0111328125 249.1298828125 173.15 241.05 172.4490234375 239.8421875 171.65 238.75
L 177.8 234.45
Q 178.2068359375 235.049609375 178.55 235.65 184.8904296875 246.0080078125 185.6 259.7 185.7271484375 261.821875 185.7 264 185.70078125 265.6525390625 185.6 267.3
L 185.6 267.35
Q 185.026953125 278.4318359375 181.4 287.55 179.875390625 291.505078125 177.75 295.05 177.009375 296.33515625 176.15 297.55 175.7009765625 298.28515625 175.2 299 174.614453125 299.7861328125 174 300.5 165.086328125 312.044140625 153.6 312.15 153.5275390625 312.175 153.4 312.15 142.1455078125 312.1546875 134.45 301.1 134.27578125 300.816015625 134.05 300.5 133.5828125 299.786328125 133.1 299 127.289453125 289.4435546875 126.25 277 126.07890625 275.25546875 126 273.45 125.962109375 272.204296875 125.95 270.9
M 77.6 304.95
Q 78.8130859375 305.8041015625 79.9 306.95 79.9998046875 307.0501953125 80.05 307.15 81.5654296875 308.7541015625 82.85 310.9 88.0740234375 319.3736328125 87.45 331.35 87.056640625 338.500390625 84.7 344.4 83.715234375 346.9412109375 82.35 349.25 81.872265625 350.0640625 81.35 350.85 81.03359375 351.330859375 80.7 351.8 74.6744140625 360.18984375 66.8 360.25 66.7388671875 360.25 66.65 360.25 59.3728515625 360.2607421875 54.4 353.15 53.96640625 352.504296875 53.55 351.8 49.78515625 345.6193359375 49.1 337.55 49.0078125 336.457421875 48.95 335.3 48.9294921875 333.3759765625 49.05 331.35 49.2201171875 327.76875 49.85 324.5 49.884765625 324.4646484375 49.9 324.4
L 53.55 321.8
Q 52.199609375 326.1046875 51.95 331.1 51.84453125 333.0822265625 51.9 334.9 51.9642578125 336.0587890625 52.05 337.15
L 58.25 337.35
Q 58.6021484375 339.6482421875 59.25 341.75
L 52.85 341.55
Q 53.1990234375 342.7576171875 53.6 343.9
L 60.15 344.1
Q 60.8177734375 345.6345703125 61.65 347.05 64.4955078125 351.8107421875 68.35 353.35 63.3005859375 354.451953125 60.2 352.95 64.972265625 356.4119140625 71.25 354 71.8220703125 353.73515625 72.35 353.35 72.8439453125 353.0974609375 73.3 352.75 75.6609375 351.062890625 77.75 348.1 82.7025390625 341.0765625 83.2 331.15
L 83.2 331.1
Q 83.7732421875 321.18359375 79.55 314.15 76.8673828125 309.647265625 73.2 308.05
L 77.6 304.95
M 135.95 320.3
Q 137.1978515625 320.0728515625 138.65 319.7 139.1947265625 319.6466796875 139.75 319.65 144.02734375 319.6505859375 147 322.95 147.0998046875 323.0373046875 147.15 323.1 148.202734375 324.287109375 149.05 325.85 152.2490234375 331.5810546875 151.75 339.4 151.7064453125 340.2015625 151.6 341 151.0533203125 346.2875 149.1 350.65 148.2513671875 352.5357421875 147.15 354.25 146.753515625 354.8484375 146.3 355.4 146.06875 355.7671875 145.8 356.1 145.5001953125 356.486328125 145.2 356.85 140.6400390625 362.3287109375 135.15 362.35 135.138671875 362.375 135.1 362.35 129.707421875 362.369140625 126.3 357.1 126.2375 356.9763671875 126.15 356.85 125.947265625 356.486328125 125.75 356.1 123.2119140625 351.551171875 123 345.6 122.9896484375 344.776953125 123 343.9 123.06171875 342.487890625 123.25 341 123.320703125 340.2015625 123.4 339.4 123.691015625 337.6189453125 124.1 335.9 125.62421875 330.2638671875 129 325.85 132.2671875 321.683984375 135.95 320.3
M 112.5 306.4
Q 112.5646484375 306.4373046875 112.6 306.45
L 112.7 306.4
Q 113.2361328125 307.4181640625 113.9 308.3
L 114.7 309.2
Q 115.3998046875 309.9259765625 116.25 310.5
L 105.15 316 104.4 311.35 112.5 306.4
M 92.5 345.15
Q 92.5607421875 344.5287109375 92.65 343.9 92.83046875 342.4294921875 93.15 341.05 94.27578125 336.43125 96.95 332.85 99.5603515625 329.4197265625 102.55 328.3 103.5576171875 328.1115234375 104.7 327.8 105.1578125 327.7771484375 105.6 327.75 109.0931640625 327.769140625 111.6 330.45 111.6623046875 330.5376953125 111.7 330.6 112.5849609375 331.56171875 113.3 332.85 116.0169921875 337.502734375 115.75 343.9 115.715234375 344.528515625 115.65 345.15 115.271875 349.47734375 113.75 353 113.1046875 354.5703125 112.25 355.95 111.925390625 356.4712890625 111.55 356.95 111.380078125 357.2287109375 111.15 357.5 110.9380859375 357.8216796875 110.7 358.1 107.0921875 362.5912109375 102.65 362.6 102.61328125 362.625 102.55 362.6 98.163671875 362.634765625 95.3 358.35 95.2251953125 358.238671875 95.15 358.1 94.9728515625 357.8216796875 94.8 357.5 92.6779296875 353.78671875 92.45 348.95 92.4064453125 348.27421875 92.4 347.55 92.398828125 346.4056640625 92.5 345.15
M 319.45 234.05
L 319.45 234.1
Q 326.7326171875 243.2560546875 325.3 258.1
L 249.5 251.2
Q 249.4712890625 248.9017578125 249.4 246.6
L 259.05 237.25
Q 259.5060546875 236.81171875 259.6 236.25
L 259.65 236.05
Q 259.6791015625 235.9130859375 259.65 235.75 259.682421875 235.6603515625 259.65 235.55 259.669921875 235.42578125 259.65 235.3 259.0291015625 232.444140625 258.15 229.75 257.8572265625 228.825 257.5 227.9 255.41328125 222.1814453125 252.05 217.2
L 298.95 221.75
Q 302.5052734375 222.75546875 305.6 224.1 314.0876953125 227.733984375 319.45 234.05
M 245.25 247.7
L 245.25 262.35 231.25 261.45
Q 230.7931640625 261.4259765625 230.4 261.75 230.0728515625 262.0576171875 230.05 262.5
L 229.75 267.15
Q 229.74453125 267.2513671875 229.75 267.3 229.757421875 267.717578125 230 268 230.3431640625 268.3904296875 230.8 268.4
L 245.05 269.35
Q 244.5904296875 280.0955078125 242.8 290.7 242.7619140625 290.698046875 242.7 290.7
L 228.85 289.9
Q 228.4060546875 289.85390625 228.05 290.1 227.7203125 290.3583984375 227.65 290.75
L 226.7 295.4
Q 226.653515625 295.7064453125 226.75 296 226.898828125 296.320703125 227.15 296.5 227.455859375 296.7529296875 227.8 296.8
L 241.55 297.55
Q 241.1779296875 299.3439453125 240.8 301.1 238.899609375 310.1625 235.6 318.75 235.43984375 318.7193359375 235.25 318.7
L 220.75 318
Q 220.410546875 317.995703125 220.1 318.2 219.79375 318.39375 219.65 318.7
L 217.65 323.25
Q 217.514453125 323.6158203125 217.6 324 217.7078125 324.3759765625 218 324.6 218.3076171875 324.8521484375 218.7 324.85
L 232.8 325.55
Q 232.6236328125 325.961328125 232.4 326.35 230.2595703125 331.0576171875 227.7 335.65 224.9462890625 340.5609375 221.55 345 221.2345703125 344.7701171875 220.8 344.75
L 205.95 344.5
Q 205.6873046875 344.5166015625 205.45 344.6 205.2142578125 344.753515625 205.05 344.95
L 201.35 349.5
Q 201.0671875 349.87578125 201.05 350.3 201.1119140625 350.7685546875 201.45 351.05 201.7748046875 351.4029296875 202.2 351.4
L 215.6 351.6
Q 212.646875 354.551953125 209.3 357 204.6 360.4994140625 199.4 363
L 149.5 363
Q 162.115625 354.0994140625 171.3 340.45 182.521875 323.806640625 188.3 304.9 189.01796875 302.71953125 189.65 300.5 194.1314453125 284.3203125 195.35 267.3 195.4087890625 266.750390625 195.45 266.15 195.668359375 262.94296875 195.8 259.7 196.1728515625 252.1662109375 196.15 244.55
L 245.25 247.7
M 301.2 247.6
L 301.25 247.6
Q 300.4185546875 246.77109375 299.2 246.75 298.00859375 246.77109375 297.15 247.6 296.2833984375 248.4837890625 296.25 249.65 296.2833984375 250.8935546875 297.15 251.7 298.00859375 252.5783203125 299.2 252.55 300.4029296875 252.57265625 301.2 251.7
L 301.25 251.7
Q 302.085546875 250.8908203125 302.05 249.65 302.078515625 248.4837890625 301.2 247.6
M 319.05 249.5
L 319.05 249.5
Q 318.2435546875 248.65859375 317 248.65 315.833984375 248.65859375 314.95 249.5 314.10859375 250.37109375 314.1 251.55 314.10859375 252.7810546875 314.95 253.6
L 314.95 253.6
Q 315.833984375 254.4662109375 317 254.45 318.2279296875 254.47265625 319.05 253.6
L 319.05 253.6
Q 319.92265625 252.7662109375 319.9 251.55 319.916015625 250.37109375 319.05 249.5
M 281.4 245.65
L 281.4 245.65
Q 280.5935546875 244.80859375 279.35 244.8 278.19609375 244.80859375 277.35 245.65 276.4708984375 246.52109375 276.45 247.7 276.4708984375 248.930859375 277.35 249.75
L 277.35 249.7
Q 278.19609375 250.591015625 279.35 250.6 280.5783203125 250.61015625 281.4 249.75
L 281.4 249.7
Q 282.2728515625 248.9033203125 282.25 247.7 282.266015625 246.52109375 281.4 245.65
M 257.55 243.6
Q 256.6837890625 244.4837890625 256.65 245.65 256.6837890625 246.89375 257.55 247.7
L 257.55 247.7
Q 258.3833984375 248.553125 259.55 248.55 260.778515625 248.560546875 261.6 247.7
L 261.6 247.7
Q 262.47265625 246.877734375 262.45 245.65 262.478515625 244.4837890625 261.6 243.6 260.780859375 242.75859375 259.55 242.75 258.3833984375 242.75859375 257.55 243.6
M 98.35 336.15
Q 97.4546875 337.411328125 96.8 338.85 95.7177734375 341.1693359375 95.3 343.95 95.2599609375 344.5150390625 95.2 345.1 95.1376953125 346.1423828125 95.15 347.1 95.142578125 347.7111328125 95.15 348.25
L 98.45 348.35
Q 98.588671875 349.589453125 98.85 350.7
L 95.5 350.55
Q 95.672265625 351.229296875 95.85 351.85
L 99.3 351.9
Q 99.62421875 352.7435546875 100.05 353.5 101.28984375 355.6669921875 102.95 356.55 103.2318359375 356.7037109375 103.5 356.8 103.218359375 356.8673828125 102.95 356.9 100.6462890625 357.31015625 99.2 356.6 101.64453125 358.416796875 104.95 357.15 105.2794921875 357.0060546875 105.55 356.8 105.801953125 356.708984375 106 356.55 106.0498046875 356.5501953125 106.05 356.5 107.3478515625 355.6048828125 108.5 354 111.255078125 350.3279296875 111.7 345.1 111.7654296875 344.5150390625 111.75 343.95 111.9333984375 339.44453125 110.05 336.15 108.47109375 333.3234375 106.1 332.65 105.638671875 332.5205078125 105.15 332.45 104.8669921875 332.4361328125 104.55 332.4 101.1369140625 332.438671875 98.35 336.15
M 140.25 325.6
Q 139.667578125 325.473828125 139.05 325.4 138.7060546875 325.370703125 138.35 325.35 134.1462890625 325.3712890625 130.65 329.9 129.5140625 331.4658203125 128.65 333.2 127.2962890625 336.0671875 126.75 339.45 126.6443359375 340.175390625 126.55 340.9 126.4376953125 342.16171875 126.4 343.35 126.4009765625 344.076171875 126.4 344.75
L 130.45 344.85
Q 130.58046875 346.3759765625 130.9 347.75
L 126.8 347.6
Q 126.966015625 348.4083984375 127.15 349.15
L 131.4 349.25
Q 131.7619140625 350.2505859375 132.25 351.15 133.7228515625 353.8337890625 135.75 354.95 136.0798828125 355.0951171875 136.4 355.2 136.06796875 355.2806640625 135.75 355.35 132.8927734375 355.837109375 131.15 354.95 134.0767578125 357.2146484375 138.2 355.65 138.5921875 355.4724609375 138.95 355.2 139.2525390625 355.0990234375 139.5 354.95 139.549609375 354.9123046875 139.55 354.85 141.165625 353.75390625 142.6 351.8 146.105078125 347.3001953125 146.8 340.9 146.88203125 340.175390625 146.9 339.45 147.2017578125 333.9578125 145 329.9 143.1234375 326.4556640625 140.25 325.6
M 206.8 176.85
Q 206.1544921875 176.870703125 205.6 177.2 205.2873046875 177.396875 205 177.7 204.2490234375 178.6029296875 204.25 179.8 204.30625 180.522265625 204.6 181.1 204.804296875 181.4962890625 205.1 181.8 205.2248046875 181.9435546875 205.3 182.05 205.509375 182.1912109375 205.7 182.3 206.25703125 182.6400390625 206.9 182.6 208.03203125 182.59453125 208.75 181.7 209.4958984375 180.896484375 209.45 179.7 209.4419921875 178.489453125 208.65 177.6 207.899609375 176.805859375 206.8 176.85
M 202.2 163.35
Q 202.200390625 163.412890625 202.2 163.45 202.2748046875 164.62890625 203 165.4 203.812109375 166.2435546875 204.85 166.2 205.068359375 166.1982421875 205.25 166.15 206.0837890625 166.0392578125 206.65 165.35
L 206.7 165.35
Q 207.4333984375 164.483984375 207.4 163.25 207.3669921875 162.07734375 206.55 161.25 206.469140625 161.1013671875 206.35 160.95
L 206.35 161
Q 205.6548828125 160.3935546875 204.7 160.4 203.8373046875 160.42265625 203.15 161.05 203.0591796875 161.1771484375 202.95 161.3 202.1865234375 162.1783203125 202.2 163.35
M 198.7 146.35
Q 197.961328125 147.215625 198 148.4 198.0333984375 149.6251953125 198.8 150.45 199.5998046875 151.2681640625 200.65 151.2 201.0609375 151.225 201.4 151.1 202.01875 150.89140625 202.45 150.35 203.1419921875 149.5845703125 203.15 148.5 203.17890625 148.409375 203.15 148.3 203.1423828125 147.101953125 202.35 146.25 201.5994140625 145.4181640625 200.5 145.45 199.45234375 145.473828125 198.7 146.35
M 380.6 90.35
Q 372.8818359375 90.027734375 367.2 95.2 361.5755859375 100.448046875 361.3 108.15 361.234375 110.9216796875 361.85 113.45
L 361.85 113.45
Q 362.5939453125 116.2595703125 364.15 118.7 364.210546875 118.746875 364.25 118.75 364.2865234375 118.8251953125 364.3 118.85 365.2330078125 120.241015625 366.4 121.5
L 366.4 121.5
Q 366.7626953125 121.9123046875 367.15 122.3
L 367.15 122.3
Q 369.165234375 124.2296875 371.45 125.45
L 371.45 125.5
Q 375.083984375 127.4025390625 379.45 127.6
L 379.5 127.6
Q 387.2658203125 127.9560546875 392.9 122.75 396.5263671875 119.395703125 397.05 116.85
L 375.2 123.3
Q 373.415625 122.634375 371.8 121.45
L 398.8 108.75
Q 398.88203125 108.99921875 398.85 108.15 398.8478515625 104.398828125 397.35 102.65
L 369.05 119
Q 366.8083984375 116.497265625 365.9 113.4
L 386.8 94.05
Q 388.3861328125 93.8423828125 391.45 95.1 391.7849609375 95.25703125 392.15 95.4 390.2955078125 93.2875 387 91.75 386.411328125 91.5181640625 385.8 91.3 383.3587890625 90.4958984375 380.6 90.35 Z"/>

<path fill="#FFFFFF" stroke="none" d="
M 245.25 262.35
L 245.25 247.7 196.15 244.55
Q 196.1728515625 252.1662109375 195.8 259.7 195.668359375 262.94296875 195.45 266.15 195.4087890625 266.750390625 195.35 267.3 194.1314453125 284.3203125 189.65 300.5 189.01796875 302.71953125 188.3 304.9 182.521875 323.806640625 171.3 340.45 162.115625 354.0994140625 149.5 363
L 199.4 363
Q 204.6 360.4994140625 209.3 357 212.646875 354.551953125 215.6 351.6
L 202.2 351.4
Q 201.7748046875 351.4029296875 201.45 351.05 201.1119140625 350.7685546875 201.05 350.3 201.0671875 349.87578125 201.35 349.5
L 205.05 344.95
Q 205.2142578125 344.753515625 205.45 344.6 205.6873046875 344.5166015625 205.95 344.5
L 220.8 344.75
Q 221.2345703125 344.7701171875 221.55 345 224.9462890625 340.5609375 227.7 335.65 230.2595703125 331.0576171875 232.4 326.35 232.6236328125 325.961328125 232.8 325.55
L 218.7 324.85
Q 218.3076171875 324.8521484375 218 324.6 217.7078125 324.3759765625 217.6 324 217.514453125 323.6158203125 217.65 323.25
L 219.65 318.7
Q 219.79375 318.39375 220.1 318.2 220.410546875 317.995703125 220.75 318
L 235.25 318.7
Q 235.43984375 318.7193359375 235.6 318.75 238.899609375 310.1625 240.8 301.1 241.1779296875 299.3439453125 241.55 297.55
L 227.8 296.8
Q 227.455859375 296.7529296875 227.15 296.5 226.898828125 296.320703125 226.75 296 226.653515625 295.7064453125 226.7 295.4
L 227.65 290.75
Q 227.7203125 290.3583984375 228.05 290.1 228.4060546875 289.85390625 228.85 289.9
L 242.7 290.7
Q 242.7619140625 290.698046875 242.8 290.7 244.5904296875 280.0955078125 245.05 269.35
L 230.8 268.4
Q 230.3431640625 268.3904296875 230 268 229.757421875 267.717578125 229.75 267.3 229.74453125 267.2513671875 229.75 267.15
L 230.05 262.5
Q 230.0728515625 262.0576171875 230.4 261.75 230.7931640625 261.4259765625 231.25 261.45
L 245.25 262.35
M 319.45 234.1
L 319.45 234.05
Q 314.0876953125 227.733984375 305.6 224.1 302.5052734375 222.75546875 298.95 221.75
L 252.05 217.2
Q 255.41328125 222.1814453125 257.5 227.9 257.8572265625 228.825 258.15 229.75 259.0291015625 232.444140625 259.65 235.3 259.669921875 235.42578125 259.65 235.55 259.682421875 235.6603515625 259.65 235.75 259.6791015625 235.9130859375 259.65 236.05
L 259.6 236.25
Q 259.5060546875 236.81171875 259.05 237.25
L 249.4 246.6
Q 249.4712890625 248.9017578125 249.5 251.2
L 325.3 258.1
Q 326.7326171875 243.2560546875 319.45 234.1
M 256.65 245.65
Q 256.6837890625 244.4837890625 257.55 243.6 258.3833984375 242.75859375 259.55 242.75 260.780859375 242.75859375 261.6 243.6 262.478515625 244.4837890625 262.45 245.65 262.47265625 246.877734375 261.6 247.7
L 261.6 247.7
Q 260.778515625 248.560546875 259.55 248.55 258.3833984375 248.553125 257.55 247.7
L 257.55 247.7
Q 256.6837890625 246.89375 256.65 245.65
M 281.4 245.65
L 281.4 245.65
Q 282.266015625 246.52109375 282.25 247.7 282.2728515625 248.9033203125 281.4 249.7
L 281.4 249.75
Q 280.5783203125 250.61015625 279.35 250.6 278.19609375 250.591015625 277.35 249.7
L 277.35 249.75
Q 276.4708984375 248.930859375 276.45 247.7 276.4708984375 246.52109375 277.35 245.65 278.19609375 244.80859375 279.35 244.8 280.5935546875 244.80859375 281.4 245.65
M 319.05 249.5
L 319.05 249.5
Q 319.916015625 250.37109375 319.9 251.55 319.92265625 252.7662109375 319.05 253.6
L 319.05 253.6
Q 318.2279296875 254.47265625 317 254.45 315.833984375 254.4662109375 314.95 253.6
L 314.95 253.6
Q 314.10859375 252.7810546875 314.1 251.55 314.10859375 250.37109375 314.95 249.5 315.833984375 248.65859375 317 248.65 318.2435546875 248.65859375 319.05 249.5
M 301.25 247.6
L 301.2 247.6
Q 302.078515625 248.4837890625 302.05 249.65 302.085546875 250.8908203125 301.25 251.7
L 301.2 251.7
Q 300.4029296875 252.57265625 299.2 252.55 298.00859375 252.5783203125 297.15 251.7 296.2833984375 250.8935546875 296.25 249.65 296.2833984375 248.4837890625 297.15 247.6 298.00859375 246.77109375 299.2 246.75 300.4185546875 246.77109375 301.25 247.6
M 92.65 343.9
Q 92.5607421875 344.5287109375 92.5 345.15 92.398828125 346.4056640625 92.4 347.55 92.4064453125 348.27421875 92.45 348.95 92.6779296875 353.78671875 94.8 357.5 94.9728515625 357.8216796875 95.15 358.1 95.2251953125 358.238671875 95.3 358.35 98.163671875 362.634765625 102.55 362.6 102.61328125 362.625 102.65 362.6 107.0921875 362.5912109375 110.7 358.1 110.9380859375 357.8216796875 111.15 357.5 111.380078125 357.2287109375 111.55 356.95 111.925390625 356.4712890625 112.25 355.95 113.1046875 354.5703125 113.75 353 115.271875 349.47734375 115.65 345.15 115.715234375 344.528515625 115.75 343.9 116.0169921875 337.502734375 113.3 332.85 112.5849609375 331.56171875 111.7 330.6 111.6623046875 330.5376953125 111.6 330.45 109.0931640625 327.769140625 105.6 327.75 105.1578125 327.7771484375 104.7 327.8 103.5576171875 328.1115234375 102.55 328.3 99.5603515625 329.4197265625 96.95 332.85 94.27578125 336.43125 93.15 341.05 92.83046875 342.4294921875 92.65 343.9
M 96.8 338.85
Q 97.4546875 337.411328125 98.35 336.15 101.1369140625 332.438671875 104.55 332.4 104.8669921875 332.4361328125 105.15 332.45 105.638671875 332.5205078125 106.1 332.65 108.47109375 333.3234375 110.05 336.15 111.9333984375 339.44453125 111.75 343.95 111.7654296875 344.5150390625 111.7 345.1 111.255078125 350.3279296875 108.5 354 107.3478515625 355.6048828125 106.05 356.5 106.0498046875 356.5501953125 106 356.55 105.801953125 356.708984375 105.55 356.8 105.2794921875 357.0060546875 104.95 357.15 101.64453125 358.416796875 99.2 356.6 100.6462890625 357.31015625 102.95 356.9 103.218359375 356.8673828125 103.5 356.8 103.2318359375 356.7037109375 102.95 356.55 101.28984375 355.6669921875 100.05 353.5 99.62421875 352.7435546875 99.3 351.9
L 95.85 351.85
Q 95.672265625 351.229296875 95.5 350.55
L 98.85 350.7
Q 98.588671875 349.589453125 98.45 348.35
L 95.15 348.25
Q 95.142578125 347.7111328125 95.15 347.1 95.1376953125 346.1423828125 95.2 345.1 95.2599609375 344.5150390625 95.3 343.95 95.7177734375 341.1693359375 96.8 338.85
M 112.6 306.45
Q 112.5646484375 306.4373046875 112.5 306.4
L 104.4 311.35 105.15 316 116.25 310.5
Q 115.3998046875 309.9259765625 114.7 309.2
L 113.9 308.3
Q 113.2361328125 307.4181640625 112.7 306.4
L 112.6 306.45
M 138.65 319.7
Q 137.1978515625 320.0728515625 135.95 320.3 132.2671875 321.683984375 129 325.85 125.62421875 330.2638671875 124.1 335.9 123.691015625 337.6189453125 123.4 339.4 123.320703125 340.2015625 123.25 341 123.06171875 342.487890625 123 343.9 122.9896484375 344.776953125 123 345.6 123.2119140625 351.551171875 125.75 356.1 125.947265625 356.486328125 126.15 356.85 126.2375 356.9763671875 126.3 357.1 129.707421875 362.369140625 135.1 362.35 135.138671875 362.375 135.15 362.35 140.6400390625 362.3287109375 145.2 356.85 145.5001953125 356.486328125 145.8 356.1 146.06875 355.7671875 146.3 355.4 146.753515625 354.8484375 147.15 354.25 148.2513671875 352.5357421875 149.1 350.65 151.0533203125 346.2875 151.6 341 151.7064453125 340.2015625 151.75 339.4 152.2490234375 331.5810546875 149.05 325.85 148.202734375 324.287109375 147.15 323.1 147.0998046875 323.0373046875 147 322.95 144.02734375 319.6505859375 139.75 319.65 139.1947265625 319.6466796875 138.65 319.7
M 139.05 325.4
Q 139.667578125 325.473828125 140.25 325.6 143.1234375 326.4556640625 145 329.9 147.2017578125 333.9578125 146.9 339.45 146.88203125 340.175390625 146.8 340.9 146.105078125 347.3001953125 142.6 351.8 141.165625 353.75390625 139.55 354.85 139.549609375 354.9123046875 139.5 354.95 139.2525390625 355.0990234375 138.95 355.2 138.5921875 355.4724609375 138.2 355.65 134.0767578125 357.2146484375 131.15 354.95 132.8927734375 355.837109375 135.75 355.35 136.06796875 355.2806640625 136.4 355.2 136.0798828125 355.0951171875 135.75 354.95 133.7228515625 353.8337890625 132.25 351.15 131.7619140625 350.2505859375 131.4 349.25
L 127.15 349.15
Q 126.966015625 348.4083984375 126.8 347.6
L 130.9 347.75
Q 130.58046875 346.3759765625 130.45 344.85
L 126.4 344.75
Q 126.4009765625 344.076171875 126.4 343.35 126.4376953125 342.16171875 126.55 340.9 126.6443359375 340.175390625 126.75 339.45 127.2962890625 336.0671875 128.65 333.2 129.5140625 331.4658203125 130.65 329.9 134.1462890625 325.3712890625 138.35 325.35 138.7060546875 325.370703125 139.05 325.4
M 79.9 306.95
Q 78.8130859375 305.8041015625 77.6 304.95
L 73.2 308.05
Q 76.8673828125 309.647265625 79.55 314.15 83.7732421875 321.18359375 83.2 331.1
L 83.2 331.15
Q 82.7025390625 341.0765625 77.75 348.1 75.6609375 351.062890625 73.3 352.75 72.8439453125 353.0974609375 72.35 353.35 71.8220703125 353.73515625 71.25 354 64.972265625 356.4119140625 60.2 352.95 63.3005859375 354.451953125 68.35 353.35 64.4955078125 351.8107421875 61.65 347.05 60.8177734375 345.6345703125 60.15 344.1
L 53.6 343.9
Q 53.1990234375 342.7576171875 52.85 341.55
L 59.25 341.75
Q 58.6021484375 339.6482421875 58.25 337.35
L 52.05 337.15
Q 51.9642578125 336.0587890625 51.9 334.9 51.84453125 333.0822265625 51.95 331.1 52.199609375 326.1046875 53.55 321.8
L 49.9 324.4
Q 49.884765625 324.4646484375 49.85 324.5 49.2201171875 327.76875 49.05 331.35 48.9294921875 333.3759765625 48.95 335.3 49.0078125 336.457421875 49.1 337.55 49.78515625 345.6193359375 53.55 351.8 53.96640625 352.504296875 54.4 353.15 59.3728515625 360.2607421875 66.65 360.25 66.7388671875 360.25 66.8 360.25 74.6744140625 360.18984375 80.7 351.8 81.03359375 351.330859375 81.35 350.85 81.872265625 350.0640625 82.35 349.25 83.715234375 346.9412109375 84.7 344.4 87.056640625 338.500390625 87.45 331.35 88.0740234375 319.3736328125 82.85 310.9 81.5654296875 308.7541015625 80.05 307.15 79.9998046875 307.0501953125 79.9 306.95
M 130.7 267.6
L 125.95 270.9
Q 125.962109375 272.204296875 126 273.45 126.07890625 275.25546875 126.25 277 127.289453125 289.4435546875 133.1 299 133.5828125 299.786328125 134.05 300.5 134.27578125 300.816015625 134.45 301.1 142.1455078125 312.1546875 153.4 312.15 153.5275390625 312.175 153.6 312.15 165.086328125 312.044140625 174 300.5 174.614453125 299.7861328125 175.2 299 175.7009765625 298.28515625 176.15 297.55 177.009375 296.33515625 177.75 295.05 179.875390625 291.505078125 181.4 287.55 185.026953125 278.4318359375 185.6 267.35
L 185.6 267.3
Q 185.70078125 265.6525390625 185.7 264 185.7271484375 261.821875 185.6 259.7 184.8904296875 246.0080078125 178.55 235.65 178.2068359375 235.049609375 177.8 234.45
L 171.65 238.75
Q 172.4490234375 239.8421875 173.15 241.05 178.0111328125 249.1298828125 178.75 259.7 178.9384765625 261.7048828125 178.95 263.8 178.9328125 265.4474609375 178.8 267.15
L 178.8 267.15
Q 178.8212890625 267.2501953125 178.8 267.3 177.971484375 282.4744140625 170.35 293.2 167.1720703125 297.76171875 163.55 300.4 163.4876953125 300.4626953125 163.4 300.5 162.783203125 300.964453125 162.1 301.35 161.2646484375 301.90390625 160.35 302.35
L 160.35 302.35
Q 150.735546875 306.00859375 143.45 300.65 148.2013671875 302.9896484375 156 301.3 155.1603515625 300.960546875 154.35 300.5 149.4001953125 297.9107421875 145.6 291.6 144.342578125 289.454296875 143.35 287.1
L 133.3 286.8
Q 132.6595703125 285.0244140625 132.15 283.1
L 142 283.45
Q 140.97890625 280.226171875 140.45 276.7
L 130.95 276.4
Q 130.7705078125 274.7330078125 130.65 273 130.566015625 270.372265625 130.7 267.6
M 119.4 289.75
Q 117.8244140625 285.3916015625 117.6 276.8
L 84.4 300.1
Q 87.6376953125 301.98671875 90.5 305.6 91.4169921875 306.751953125 92.3 308.05 98.3830078125 303.9228515625 103.35 300.5 113.727734375 293.523046875 119.4 289.75
M 120.45 229.75
Q 116.8126953125 232.2705078125 113.1 234.95 118.0671875 232.2384765625 122.7 229.75 151.450390625 214.3701171875 169.05 208.45 173.2623046875 207.059765625 176.8 206.2 179.7193359375 207.334375 182.2 209.2 190.3041015625 215.247265625 194.35 228.95
L 253.1 234.1
Q 252.3189453125 231.47265625 251.65 229.75 251.1421875 228.4384765625 250.55 227.15 248.6447265625 222.939453125 245.95 219.05
L 245.95 219.05
Q 244.8265625 217.4279296875 243.55 215.9 242.0513671875 214.13203125 240.35 212.5 238.38125 210.70234375 236.15 209.1 234.7337890625 208.07265625 233.15 207.1 231.64921875 206.460546875 229.95 205.85 224.6666015625 204.0638671875 217.7 202.95 212.6642578125 202.15859375 206.75 201.7 205.6080078125 201.6544921875 204.5 201.6 204.18515625 201.5767578125 203.85 201.55 198.79921875 201.2197265625 193.55 200.85 190.070703125 200.6244140625 186.5 200.35 183.2916015625 200.1404296875 180 199.9 176.4125 200.9205078125 172.7 202.15 165.5892578125 204.6328125 158.2 207.95 140.0501953125 216.1921875 120.45 229.75
M 297.9 177.7
Q 297.749609375 177.2685546875 297.55 176.85
L 290.75 180.4
Q 291.251171875 183.3880859375 291.3 186.1 291.3345703125 188.2845703125 291.1 190.3 291.0806640625 190.450390625 291.05 190.6 290.8765625 191.90703125 290.55 193.15 290.4095703125 193.782421875 290.2 194.4
L 289.8 195.6 302.5 197.2
Q 302.3921875 196.0599609375 302.3 195.05 301.921875 191.957421875 301.65 190.65
L 301.65 190.6
Q 301.5015625 189.723828125 301.35 188.9 301.027734375 187.4150390625 300.65 185.95 299.5375 181.64765625 297.9 177.7
M 269.2 192.5
L 269.2 192.95 284.25 194.95
Q 284.276171875 194.8837890625 284.3 194.8 284.4076171875 194.4482421875 284.45 194.25
L 284.55 193.85
Q 284.58203125 193.7318359375 284.65 193.6 284.913671875 192.762109375 285.05 192.35
L 285 192.4
Q 285.257421875 191.349609375 285.45 190.25
L 285.45 190.15
Q 285.722265625 188.3349609375 285.7 186.45 285.71796875 184.903125 285.55 183.15
L 269.5 191.65
Q 269.3716796875 192.078125 269.2 192.5
M 225.85 160.05
L 225.8 160.05
Q 225.4896484375 160.1 225.15 160.3 229.888671875 166.629296875 230.25 172.8 230.7248046875 180.37734375 227.55 186.7 227.271484375 187.2244140625 226.95 187.75
L 247.4 190.15
Q 252.9048828125 171.8904296875 254.4 169.9
L 261.7 164.9 225.85 160.05
M 195.5 189.7
L 195.4 194.8
Q 198.0001953125 194.947265625 200.05 195.05 202.5859375 195.251171875 204.3 195.4
L 204.35 195.4
Q 204.45 195.4 204.5 195.4
L 204.55 195.4
Q 208.953515625 195.7318359375 212.9 196.25
L 212.9 196.25
Q 215.4408203125 196.5177734375 217.75 196.85 227.8353515625 198.439453125 233.9 201.05 234.028125 201.053125 234.15 201.1 237.33125 202.6568359375 240.1 204.5 241.6693359375 205.516015625 243.1 206.6 244.940625 208.0693359375 246.55 209.7 246.65 209.7873046875 246.75 209.85 246.955078125 210.093359375 247.15 210.35 247.192578125 210.3744140625 247.2 210.4
L 247.25 210.4 299.4 215.75 303.2 211.05 303.2 211.1
Q 304.9490234375 208.7607421875 307.7 208.8
L 314.8 209 314.6 204.15 195.5 189.7
M 191.05 139.75
Q 188.23203125 139.600390625 187.7 141.45 187.530859375 142.0076171875 187.55 142.75 191.1103515625 151.3169921875 193.85 162.2 194.130859375 163.2453125 194.35 164.25 195.01875 167.1162109375 195.5 170 195.8232421875 171.677734375 196.05 173.35 196.3849609375 175.5056640625 196.6 177.7 196.662890625 178.0005859375 196.7 178.3 196.999609375 181.13125 197.15 184
L 197.4 184 218 186.65 218.05 186.65
Q 218.082421875 186.38359375 218.1 186.1 218.16953125 181.9642578125 218 178.95 217.9068359375 177.3419921875 217.7 175.35 217.458203125 172.96171875 217.05 170.05 216.3259765625 164.97265625 214.1 157.5 215.649609375 155.603515625 217.7 154.75 219.0388671875 154.1876953125 220.6 154.05
L 267.85 160.6 278.4 153.15
Q 277.712890625 152.63125 276.95 152.1
L 191.05 139.75
M 198 148.4
Q 197.961328125 147.215625 198.7 146.35 199.45234375 145.473828125 200.5 145.45 201.5994140625 145.4181640625 202.35 146.25 203.1423828125 147.101953125 203.15 148.3 203.17890625 148.409375 203.15 148.5 203.1419921875 149.5845703125 202.45 150.35 202.01875 150.89140625 201.4 151.1 201.0609375 151.225 200.65 151.2 199.5998046875 151.2681640625 198.8 150.45 198.0333984375 149.6251953125 198 148.4
M 202.2 163.45
Q 202.200390625 163.412890625 202.2 163.35 202.1865234375 162.1783203125 202.95 161.3 203.0591796875 161.1771484375 203.15 161.05 203.8373046875 160.42265625 204.7 160.4 205.6548828125 160.3935546875 206.35 161
L 206.35 160.95
Q 206.469140625 161.1013671875 206.55 161.25 207.3669921875 162.07734375 207.4 163.25 207.4333984375 164.483984375 206.7 165.35
L 206.65 165.35
Q 206.0837890625 166.0392578125 205.25 166.15 205.068359375 166.1982421875 204.85 166.2 203.812109375 166.2435546875 203 165.4 202.2748046875 164.62890625 202.2 163.45
M 205.6 177.2
Q 206.1544921875 176.870703125 206.8 176.85 207.899609375 176.805859375 208.65 177.6 209.4419921875 178.489453125 209.45 179.7 209.4958984375 180.896484375 208.75 181.7 208.03203125 182.59453125 206.9 182.6 206.25703125 182.6400390625 205.7 182.3 205.509375 182.1912109375 205.3 182.05 205.2248046875 181.9435546875 205.1 181.8 204.804296875 181.4962890625 204.6 181.1 204.30625 180.522265625 204.25 179.8 204.2490234375 178.6029296875 205 177.7 205.2873046875 177.396875 205.6 177.2
M 185.3 120.25
L 183.75 123.35
Q 180.684765625 125.856640625 176.6 125.85 172.730078125 125.9115234375 169.1 124.45 166.5654296875 123.4529296875 164.3 121.8 163.3193359375 121.1197265625 162.35 120.3 161.2619140625 119.308984375 160.3 118.15 160.04140625 117.782421875 159.75 117.4
L 153.8 118.25
Q 155.46328125 122.9802734375 155.8 125.8 156.136328125 128.642578125 156.45 131.2 156.8318359375 133.8279296875 156.55 139.35
L 151.75 136.35
Q 155.36640625 142.15625 157.05 145 159.0021484375 143.9103515625 159.45 143.65 162.437109375 142.2125 165.4 140.75 168.7498046875 139.0904296875 172.1 137.45 173.915625 136.6029296875 175.75 135.75 183.0271484375 132.7125 190.8 133.2
L 190.8 133.25 190.9 133.25 190.1 129.15
Q 189.7103515625 124.9033203125 189.85 121.9 187.6931640625 120.7822265625 185.3 120.25
M 182.65 104.6
Q 182.55 104.5546875 182.4 104.45 182.068359375 104.367578125 181.75 104.3 181.403125 104.1826171875 181.05 104.05
L 181 103.95
Q 180.9744140625 103.8173828125 180.9 103.55 180.7189453125 103.107421875 180.65 102.9 180.5966796875 102.5400390625 180.5 102.2 180.3576171875 101.8876953125 180.2 101.55 180.2005859375 101.3896484375 180.15 101.25 179.32421875 100.9939453125 178.4 101.05 178.2873046875 101.059765625 178.15 101.05 178.1201171875 101.1322265625 178.05 101.2 177.9294921875 101.40234375 177.75 101.6 177.575 101.9478515625 177.35 102.25 177.1599609375 102.55 176.95 102.85 176.8244140625 103.06484375 176.65 103.3 176.6228515625 103.3423828125 176.6 103.35 175.755859375 103.7529296875 174.75 103.9 173.73046875 104.042578125 172.85 104.15 172.2033203125 104.2578125 171.7 104.3
L 171.45 104.3
Q 170.496875 104.436328125 170.35 104.75 170.2462890625 105.0251953125 170.15 105.35 170.0904296875 105.562890625 170.1 105.75 170.09765625 105.8375 170.1 105.9
L 170.1 106
Q 170.1130859375 106.032421875 170.15 106.05 170.135546875 106.244921875 170.2 106.4 170.3033203125 106.8853515625 170.4 107.35 170.532421875 107.6986328125 170.65 108.05 170.864453125 108.86484375 171.2 109.6 171.74453125 110.30859375 172.5 110.7 173.2349609375 111.115234375 173.95 111.5
L 175.55 111.95
Q 175.8029296875 111.9654296875 176.05 112 176.567578125 112 177.05 112 177.2748046875 111.9873046875 177.5 111.95 177.769921875 111.9529296875 178.05 111.95 179.073046875 111.79296875 180 111.45 180.878515625 111.073828125 181.25 110.75 181.673046875 110.430859375 181.75 110.2
L 182.1 109.4
Q 182.3724609375 108.63125 182.65 107.75 182.744921875 107.546875 182.8 107.35 182.98046875 106.780859375 183.05 106.45 183.11953125 106.06953125 183.25 105.2 183.2810546875 104.9298828125 183.05 104.8 182.7720703125 104.6431640625 182.65 104.6
M 166.45 92.25
Q 166.339453125 92.323828125 166.2 92.35 166.06328125 92.444140625 165.9 92.5 165.6736328125 92.6771484375 165.45 92.85 165.1458984375 95.269921875 165.25 97.25
L 165.25 97.25
Q 165.553125 100.3625 166.15 100.6 169.2466796875 101.422265625 172.9 101.15 174.1919921875 101.1314453125 174.9 100.55
L 175.35 100
Q 175.4291015625 99.9396484375 175.5 99.85
L 176.3 98.85
Q 176.880859375 97.9220703125 177.75 98 179.197265625 98.0716796875 180.6 98.25
L 180.6 98.25
Q 181.3880859375 98.26796875 181.75 99.15
L 181.75 99.15 182.05 100
Q 182.1205078125 100.04453125 182.15 100.1
L 182.65 101.5
Q 182.687890625 101.640234375 182.65 101.7 184.1419921875 101.969140625 185.2 101.75 185.6314453125 101.301171875 185.75 100.8
L 185.75 100.8
Q 186.833203125 97.465234375 186.45 94.95 186.34609375 94.628125 185.95 94.05 176.81015625 91.308203125 166.45 92.25
M 361.55 271.45
Q 361.5890625 271.213671875 361.6 271 361.666015625 270.5765625 361.95 270.3 362.2919921875 270.0544921875 362.7 270.1
L 375.75 270.9
Q 375.7775390625 269.661328125 375.75 268.4
L 375.75 268.35
Q 375.7318359375 267.8494140625 375.7 267.3 375.575 263.8453125 375.2 260.4
L 334.5 256.7
Q 334.863671875 262.0361328125 334.7 267.3 334.7091796875 267.5626953125 334.7 267.8 334.1552734375 283.8642578125 330.35 299.5 330.06796875 300.8171875 329.75 302.1 326.5513671875 315.050390625 320.8 327.05 320.2708984375 328.2318359375 319.7 329.4 314.0642578125 341.033984375 305.75 350.8
L 299.55 357.5 293.5 363 333.2 363
Q 339.7453125 358.746484375 345.25 353.45
L 331.9 353.25
Q 331.4904296875 353.249609375 331.2 352.95 330.8705078125 352.6806640625 330.85 352.25 330.841015625 351.83515625 331.1 351.5 331.694921875 350.885546875 332.25 350.25
L 332.25 350.25
Q 332.305078125 350.196484375 332.35 350.15 333.68359375 348.561328125 334.9 346.95 335.07890625 346.7685546875 335.3 346.65 335.525390625 346.5828125 335.75 346.6
L 350.55 346.8
Q 350.92265625 346.824609375 351.2 347.05 354.95859375 342.511328125 358.1 337.35 359.819921875 334.5119140625 361.35 331.6
L 362.1 330.1 347.7 329.45
Q 347.383984375 329.415625 347.1 329.15
L 347.1 329.15
Q 346.8267578125 328.9458984375 346.75 328.6 346.6716796875 328.2380859375 346.8 327.9 347.5248046875 326.4884765625 348.2 325.1
L 348.2 325.05
Q 348.304296875 324.90625 348.35 324.75
L 348.4 324.7
Q 348.4322265625 324.51953125 348.55 324.3
L 348.55 324.3
Q 348.7814453125 323.84296875 348.95 323.4 349.103515625 323.1267578125 349.35 322.95 349.6529296875 322.7830078125 349.95 322.8
L 364.95 323.5
Q 365.1486328125 323.5263671875 365.3 323.55 369.2669921875 314.61015625 371.7 305
L 357.2 304.15
Q 356.9052734375 304.1375 356.65 303.95 356.398828125 303.7541015625 356.3 303.45
L 356.3 303.45
Q 356.2185546875 303.16328125 356.3 302.85 356.758984375 301.11171875 357.2 299.3 357.2130859375 299.3025390625 357.2 299.25 357.3376953125 298.7740234375 357.45 298.25 357.5859375 297.9041015625 357.9 297.7 358.1921875 297.4681640625 358.55 297.45
L 373.1 298.3
Q 373.188671875 298.3056640625 373.25 298.3 375.3064453125 288.087109375 375.7 277.65
L 362.2 276.8
Q 361.801953125 276.774609375 361.5 276.45 361.22734375 276.1146484375 361.25 275.65 361.4240234375 273.56328125 361.55 271.45
L 361.55 271.45
M 381 236.05
Q 376.1099609375 228.4005859375 370.05 224.1 366.2134765625 221.3546875 361.9 219.95 345.87265625 216.3521484375 318.4 215.1 318.03671875 215.1169921875 317.65 215.1
L 317.45 215.1
Q 317.4001953125 215.098046875 317.35 215.1 317.06328125 215.0833984375 316.75 215.05 317.0599609375 215.2033203125 317.35 215.3 317.7798828125 215.4953125 318.2 215.65 325.7609375 219.0720703125 330.7 224.1 337.973046875 231.4369140625 339.6 242.25
L 386.8 246.8
Q 384.2947265625 241.2390625 381 236.05
M 324.4 130.55
L 324.4 130.5
Q 324.3337890625 128.951953125 324.45 127.45
L 260.85 171.55
Q 260.8111328125 171.612109375 260.75 171.65 259.82421875 172.22578125 259 173.1 257.526953125 174.8306640625 257.15 177 257.0853515625 177.3564453125 257.05 177.7 256.98984375 178.411328125 257.05 179.15 257.137890625 180.5578125 257.55 181.75 257.653515625 182.0193359375 257.75 182.25
L 327.15 140 327.15 139.95
Q 325.8341796875 137.6384765625 325.15 135.05 324.565234375 132.898828125 324.4 130.55
M 379.25 86.75
Q 371.5259765625 86.40703125 365.25 90.3
L 360.15 94.1
Q 348.934765625 102.929296875 338.7 111.75
L 332.45 117.1
Q 332.271484375 117.3330078125 332.1 117.55 330.3607421875 119.49609375 329.3 121.65 328.71171875 122.91484375 328.35 124.2 328.339453125 124.252734375 328.3 124.25
L 328.3 124.3 328.3 124.35 328.3 124.4 328.25 124.4
Q 327.869140625 125.7232421875 327.7 127.1 327.561328125 128.6607421875 327.65 130.35
L 327.65 130.35
Q 327.760546875 132.0708984375 328.1 133.65
L 353.5 116.2
Q 353.18125 112.0458984375 355.55 107.45 355.538671875 108.020703125 355.6 110.3 355.70546875 112.622265625 356.25 115.1
L 356.2 115.15
Q 357.106640625 118.5189453125 359 121.5 360.2052734375 123.3515625 361.75 125.05 363.2552734375 126.67109375 364.9 127.95 365.130078125 128.0654296875 365.4 128.3 365.7857421875 128.5767578125 366.15 128.85 366.2486328125 128.871484375 366.3 128.9 371.4212890625 132.2685546875 377.95 132.55 382.4095703125 132.790234375 386.3 131.5 386.337109375 131.512109375 386.35 131.5 386.4140625 131.4720703125 386.45 131.45
L 386.45 131.45
Q 390.8181640625 129.9435546875 394.45 126.55 401.41796875 120.2009765625 401.7 110.8 401.9142578125 103.4861328125 398.05 97.6
L 398.1 97.65
Q 396.9142578125 95.8947265625 395.4 94.25 388.84375 87.2248046875 379.25 86.75
M 367.2 95.2
Q 372.8818359375 90.027734375 380.6 90.35 383.3587890625 90.4958984375 385.8 91.3 386.411328125 91.5181640625 387 91.75 390.2955078125 93.2875 392.15 95.4 391.7849609375 95.25703125 391.45 95.1 388.3861328125 93.8423828125 386.8 94.05
L 365.9 113.4
Q 366.8083984375 116.497265625 369.05 119
L 397.35 102.65
Q 398.8478515625 104.398828125 398.85 108.15 398.88203125 108.99921875 398.8 108.75
L 371.8 121.45
Q 373.415625 122.634375 375.2 123.3
L 397.05 116.85
Q 396.5263671875 119.395703125 392.9 122.75 387.2658203125 127.9560546875 379.5 127.6
L 379.45 127.6
Q 375.083984375 127.4025390625 371.45 125.5
L 371.45 125.45
Q 369.165234375 124.2296875 367.15 122.3
L 367.15 122.3
Q 366.7626953125 121.9123046875 366.4 121.5
L 366.4 121.5
Q 365.2330078125 120.241015625 364.3 118.85 364.2865234375 118.8251953125 364.25 118.75 364.210546875 118.746875 364.15 118.7 362.5939453125 116.2595703125 361.85 113.45
L 361.85 113.45
Q 361.234375 110.9216796875 361.3 108.15 361.5755859375 100.448046875 367.2 95.2 Z"/>
</g>
</defs>

<g transform="matrix( 1, 0, 0, 1, 225,369.1) ">
<g transform="matrix( 1, 0, 0, 1, -225,-369.1) ">
<use xlink:href="#NG_TANK_0_Layer0_0_FILL"/>
</g>
</g>
</svg>
